<svg width="46" height="46" viewBox="0 0 46 46" fill="none" xmlns="http://www.w3.org/2000/svg">
<path d="M17.25 3.83333H9.58333V7.66667H5.75V11.5H1.91667V23H5.75V26.8333H9.58333V30.6667H13.4167V34.5H17.25V38.3333H21.0833V42.1667H24.9167V38.3333H28.75V34.5H32.5833V30.6667H36.4167V26.8333H40.25V23H44.0833V11.5H40.25V7.66667H36.4167V3.83333H28.75V7.66667H24.9167V11.5H21.0833V7.66667H17.25V3.83333ZM17.25 7.66667V11.5H21.0833V15.3333H24.9167V11.5H28.75V7.66667H36.4167V11.5H40.25V23H36.4167V26.8333H32.5833V30.6667H28.75V34.5H24.9167V38.3333H21.0833V34.5H17.25V30.6667H13.4167V26.8333H9.58333V23H5.75V11.5H9.58333V7.66667H17.25Z" fill="black"/>
<path d="M17.25 11.5V7.66667H9.58333V11.5H5.75V23H9.58333V26.8333H13.4167V30.6667H17.25V34.5H21.0833V38.3333H24.9167V34.5H28.75V30.6667H32.5833V26.8333H36.4167V23H40.25V11.5H36.4167V7.66667H28.75V11.5H24.9167V15.3333H21.0833V11.5H17.25Z" fill="#FF7171"/>
</svg>
