<svg width="46" height="46" viewBox="0 0 46 46" fill="none" xmlns="http://www.w3.org/2000/svg">
<path d="M9.58333 5.75H36.4167V9.58333H9.58333V5.75ZM9.58333 36.4167H5.75V9.58333H9.58333V36.4167ZM36.4167 36.4167V40.25H9.58333V36.4167H36.4167ZM36.4167 36.4167H40.25V9.58333H36.4167V36.4167ZM19.1667 15.3333H15.3333V19.1667H19.1667V15.3333ZM26.8333 15.3333H30.6667V19.1667H26.8333V15.3333ZM17.25 26.8333V23H13.4167V26.8333H17.25ZM28.75 26.8333V30.6667H17.25V26.8333H28.75ZM28.75 26.8333H32.5833V23H28.75V26.8333Z" fill="black"/>
<path fill-rule="evenodd" clip-rule="evenodd" d="M36.4167 9.58333H9.58333V36.4167H36.4167V9.58333ZM15.3333 15.3333H19.1667V19.1667H15.3333V15.3333ZM30.6667 15.3333H26.8333V19.1667H30.6667V15.3333ZM17.25 23V26.8333H28.75V23H32.5833V26.8333H28.75V30.6667H17.25V26.8333H13.4167V23H17.25Z" fill="#FFB937"/>
</svg>
